<?xml version="1.0" encoding="UTF-8"?>
<!DOCTYPE svg PUBLIC "-//W3C//DTD SVG 1.1//EN" "http://www.w3.org/Graphics/SVG/1.1/DTD/svg11.dtd">
<!-- Creator: CorelDRAW -->
<svg xmlns="http://www.w3.org/2000/svg" xml:space="preserve" width="300px" height="300px" style="shape-rendering:geometricPrecision; text-rendering:geometricPrecision; image-rendering:optimizeQuality; fill-rule:evenodd; clip-rule:evenodd"
viewBox="0 0 23.8487 23.8487"
 xmlns:xlink="http://www.w3.org/1999/xlink">
 <defs>
  <style type="text/css">
   <![CDATA[
    .str0 {stroke:#000099;stroke-width:0.140726}
    .fil0 {fill:#000099}
    .fil1 {fill:white;fill-rule:nonzero}
   ]]>
  </style>
 </defs>
 <g id="Vrstva_x0020_1">
  <metadata id="CorelCorpID_0Corel-Layer"/>
  <rect class="fil0 str0" x="0.0703629" y="0.0703629" width="23.708" height="23.708"/>
  <path class="fil1" d="M9.34717 13.214l1.90562 0.603589c-0.2927,1.06406 -0.77822,1.85353 -1.45863,2.37088 -0.678579,0.515197 -1.54296,0.773672 -2.58899,0.773672 -1.29302,0 -2.35708,-0.44244 -3.18994,-1.32485 -0.832548,-0.884961 -1.24994,-2.09437 -1.24994,-3.62568 0,-1.62226 0.419624,-2.88153 1.25704,-3.77997 0.837015,-0.89589 1.93745,-1.34519 3.30315,-1.34519 1.19106,0 2.15995,0.351495 2.90402,1.05704 0.444754,0.415476 0.775986,1.0142 0.998483,1.79465l-1.94902 0.465336c-0.113522,-0.506182 -0.354048,-0.905224 -0.721578,-1.19816 -0.364977,-0.29262 -0.809731,-0.437654 -1.33163,-0.437654 -0.721578,0 -1.30913,0.258556 -1.75835,0.77822 -0.449221,0.517031 -0.673952,1.35668 -0.673952,2.51815 0,1.23191 0.220263,2.11017 0.664937,2.63207 0.442201,0.524132 1.01875,0.784921 1.72652,0.784921 0.524132,0 0.973433,-0.165616 1.34998,-0.499082 0.376545,-0.331232 0.646668,-0.855364 0.812284,-1.56793zm9.83062 0l1.90562 0.603589c-0.29262,1.06406 -0.77822,1.85353 -1.45863,2.37088 -0.678499,0.515197 -1.54288,0.773672 -2.58891,0.773672 -1.2931,0 -2.35716,-0.44244 -3.19002,-1.32485 -0.832548,-0.884961 -1.24994,-2.09437 -1.24994,-3.62568 0,-1.62226 0.419704,-2.88153 1.25704,-3.77997 0.837015,-0.89589 1.93745,-1.34519 3.30315,-1.34519 1.19106,0 2.15995,0.351495 2.9041,1.05704 0.444674,0.415476 0.775906,1.0142 0.998483,1.79465l-1.94902 0.465336c-0.113522,-0.506182 -0.354048,-0.905224 -0.721658,-1.19816 -0.364977,-0.29262 -0.809652,-0.437654 -1.33155,-0.437654 -0.721658,0 -1.30913,0.258556 -1.75835,0.77822 -0.449221,0.517031 -0.674032,1.35668 -0.674032,2.51815 0,1.23191 0.220263,2.11017 0.665017,2.63207 0.442121,0.524132 1.01875,0.784921 1.72652,0.784921 0.524132,0 0.973353,-0.165616 1.3499,-0.499082 0.376545,-0.331232 0.646668,-0.855364 0.812284,-1.56793z"/>
 </g>
</svg>
