<?xml version="1.0" encoding="UTF-8"?>
<!DOCTYPE svg PUBLIC "-//W3C//DTD SVG 1.1//EN" "http://www.w3.org/Graphics/SVG/1.1/DTD/svg11.dtd">
<!-- Creator: CorelDRAW -->
<svg xmlns="http://www.w3.org/2000/svg" xml:space="preserve" width="300px" height="300px" style="shape-rendering:geometricPrecision; text-rendering:geometricPrecision; image-rendering:optimizeQuality; fill-rule:evenodd; clip-rule:evenodd"
viewBox="0 0 16.7838 16.7838"
 xmlns:xlink="http://www.w3.org/1999/xlink">
 <defs>
  <style type="text/css">
   <![CDATA[
    .str0 {stroke:#003399;stroke-width:0.0990376}
    .fil0 {fill:#003399}
    .fil1 {fill:white;fill-rule:nonzero}
   ]]>
  </style>
 </defs>
 <g id="Vrstva_x0020_1">
  <metadata id="CorelCorpID_0Corel-Layer"/>
  <rect class="fil0 str0" x="0.0495188" y="0.0495188" width="16.6848" height="16.6848"/>
  <path class="fil1" d="M9.40307 11.1241l-1.97794 0c-0.00527751,-0.264886 -0.00825313,-0.424447 -0.00825313,-0.483173 0,-0.593776 0.106224,-1.08183 0.317886,-1.46462 0.212055,-0.384809 0.638411,-0.814141 1.27385,-1.2949 0.635435,-0.478345 1.01676,-0.792301 1.13871,-0.941755 0.193303,-0.23294 0.288635,-0.492942 0.288635,-0.775233 0,-0.392445 -0.169666,-0.728297 -0.50855,-1.01059 -0.33894,-0.279484 -0.794546,-0.419225 -1.36918,-0.419225 -0.553241,0 -1.01676,0.14704 -1.39018,0.439044 -0.37083,0.29206 -0.627575,0.738403 -0.767934,1.33667l-1.99934 -0.23047c0.0555823,-0.858326 0.450385,-1.58696 1.18115,-2.18556 0.73335,-0.598324 1.69195,-0.897626 2.8836,-0.897626 1.25021,0 2.24592,0.304187 2.98718,0.910146 0.73902,0.605567 1.10946,1.3095 1.10946,2.11673 0,0.443929 -0.137777,0.865568 -0.407604,1.26295 -0.272859,0.397329 -0.852767,0.939622 -1.74265,1.62379 -0.460491,0.355615 -0.746487,0.639983 -0.857989,0.855855 -0.111052,0.215873 -0.161357,0.601075 -0.150858,1.15796zm-1.97794 2.71506l0 -2.0187 2.17911 0 0 2.0187 -2.17911 0z"/>
 </g>
</svg>
