<?xml version="1.0" encoding="UTF-8"?>
<!DOCTYPE svg PUBLIC "-//W3C//DTD SVG 1.1//EN" "http://www.w3.org/Graphics/SVG/1.1/DTD/svg11.dtd">
<!-- Creator: CorelDRAW -->
<svg xmlns="http://www.w3.org/2000/svg" xml:space="preserve" width="300px" height="300px" style="shape-rendering:geometricPrecision; text-rendering:geometricPrecision; image-rendering:optimizeQuality; fill-rule:evenodd; clip-rule:evenodd"
viewBox="0 0 192.449 192.449"
 xmlns:xlink="http://www.w3.org/1999/xlink">
 <defs>
  <style type="text/css">
   <![CDATA[
    .str0 {stroke:#003399;stroke-width:1.1356}
    .fil0 {fill:#003399}
    .fil1 {fill:white;fill-rule:nonzero}
   ]]>
  </style>
 </defs>
 <g id="Vrstva_x0020_1">
  <metadata id="CorelCorpID_0Corel-Layer"/>
  <rect class="fil0 str0" x="0.567799" y="0.567799" width="191.313" height="191.313"/>
  <path class="fil1" d="M39.8476 163.701l-6.88891 -6.88826 17.784 -17.784 16.2801 16.2801c-0.0566511,3.40615 -1.0841,7.38461 -3.09199,11.9418 -2.01755,4.54754 -4.70011,8.5054 -8.05927,11.8652 -4.27266,4.27201 -8.8968,7.10843 -13.8634,8.49574 -4.97629,1.38087 -9.92425,1.20963 -14.8619,-0.531104 -4.93831,-1.74267 -9.36289,-4.5675 -13.2834,-8.48802 -4.25334,-4.25334 -7.14641,-8.93479 -8.67728,-14.0257 -1.51284,-5.08959 -1.44654,-10.2371 0.236261,-15.4426 1.25856,-3.97717 3.84648,-7.91635 7.7464,-11.8163 5.07221,-5.07221 10.1051,-7.97429 15.0718,-8.69853 4.98594,-0.721658 9.76267,0.381108 14.3398,3.32117l-6.66102 9.72468c-2.58793,-1.42787 -5.26212,-1.93065 -8.01163,-1.50319 -2.75016,0.427459 -5.30976,1.827 -7.68846,4.2057 -3.60636,3.60636 -5.32843,7.61057 -5.17585,12.0274 0.161585,4.4233 2.49329,8.86655 6.99384,13.3671 4.84239,4.84303 9.5631,7.41293 14.148,7.68009 4.57715,0.275531 8.61097,-1.3416 12.104,-4.83466 1.73108,-1.73172 3.12032,-3.80593 4.18575,-6.22261 1.05577,-2.40703 1.72207,-4.72908 2.0079,-6.9359l-5.1868 -5.18615 -9.44787 9.44787zm40.3066 -10.2571l-40.8667 -40.8667 12.3506 -12.3506 35.2904 20.4665 -20.5515 -35.2055 12.3789 -12.3789 40.8667 40.8667 -7.66014 7.66014 -32.1708 -32.1708 24.0548 40.2867 -7.94597 7.94597 -40.2584 -24.0832 32.1708 32.1708 -7.65885 7.65885zm47.7176 -47.7176l-40.8667 -40.8667 28.0211 -28.0211 6.91723 6.91659 -19.7622 19.7629 9.66675 9.66675 17.0597 -17.0597 6.91852 6.91788 -17.0604 17.0597 17.3649 17.3649 -8.25884 8.25884zm45.9467 -75.9962l10.523 -5.4604c3.23555,5.68958 4.5102,11.0367 3.82653,16.06 -0.685608,5.00654 -3.2259,9.71567 -7.61314,14.1029 -5.42242,5.42242 -11.7409,8.02901 -18.9344,7.82172 -7.20306,-0.220167 -14.0257,-3.54134 -20.4472,-9.96352 -6.80393,-6.80393 -10.3253,-13.8448 -10.5815,-21.1244 -0.246561,-7.26744 2.48428,-13.7669 8.21184,-19.4944 4.99496,-4.99496 10.5326,-7.58417 16.6123,-7.74576 3.607,-0.122959 7.50756,0.99912 11.7139,3.33855l-6.22261 10.1257c-2.59887,-1.64675 -5.28143,-2.31175 -8.0509,-1.99888 -2.75788,0.303212 -5.23122,1.56048 -7.42001,3.74928 -3.02633,3.02633 -4.40591,6.57411 -4.11107,10.6375 0.284543,4.05249 2.86346,8.51634 7.73417,13.3877 5.16684,5.1662 9.77361,7.92601 13.8274,8.24918 4.05249,0.343769 7.56422,-0.980451 10.5326,-3.9482 2.19845,-2.19845 3.38748,-4.77737 3.56838,-7.75477 0.18991,-2.96839 -0.874874,-6.29922 -3.16925,-9.98219z"/>
 </g>
</svg>
