<?xml version="1.0" encoding="UTF-8"?>
<!DOCTYPE svg PUBLIC "-//W3C//DTD SVG 1.1//EN" "http://www.w3.org/Graphics/SVG/1.1/DTD/svg11.dtd">
<!-- Creator: CorelDRAW -->
<svg xmlns="http://www.w3.org/2000/svg" xml:space="preserve" width="40px" height="40px" style="shape-rendering:geometricPrecision; text-rendering:geometricPrecision; image-rendering:optimizeQuality; fill-rule:evenodd; clip-rule:evenodd"
viewBox="0 0 1.79338 1.79338"
 xmlns:xlink="http://www.w3.org/1999/xlink">
 <defs>
  <style type="text/css">
   <![CDATA[
    .str1 {stroke:white;stroke-width:0.0248552}
    .str0 {stroke:#0099FF;stroke-width:0.0497163}
    .fil0 {fill:#0099FF}
    .fil1 {fill:white}
    .fil2 {fill:white;fill-rule:nonzero}
   ]]>
  </style>
 </defs>
 <g id="Vrstva_x0020_1">
  <metadata id="CorelCorpID_0Corel-Layer"/>
  <path class="fil0 str0" d="M0.242821 0.0248611l1.30774 0c0.119878,0 0.21796,0.0980821 0.21796,0.21796l0 1.30774c0,0.119878 -0.0980821,0.21796 -0.21796,0.21796l-1.30774 0c-0.119878,0 -0.21796,-0.0980821 -0.21796,-0.21796l0 -1.30774c0,-0.119878 0.0980821,-0.21796 0.21796,-0.21796z"/>
  <polygon class="fil1 str1" points="0.737277,0.680151 0.737277,1.13127 0.737277,1.14306 0.89669,1.14306 0.577853,1.60598 0.259033,1.14306 0.41844,1.14306 0.41844,1.13127 0.41844,0.680151 0.41844,0.668354 0.259033,0.668354 0.577853,0.205442 0.89669,0.668354 0.737277,0.668354 "/>
  <path class="fil2" d="M1.3766 1.09623l-0.140271 0c-0.000375793,-0.0202811 -0.000587177,-0.0324944 -0.000587177,-0.036998 0,-0.0454593 0.00753348,-0.0828272 0.0225417,-0.112133 0.0150376,-0.0294646 0.0452772,-0.0623347 0.0903372,-0.0991507 0.0450658,-0.0366222 0.0721054,-0.0606554 0.0807545,-0.0720995 0.0137106,-0.0178384 0.020469,-0.0377437 0.020469,-0.0593577 0,-0.0300517 -0.0120313,-0.0557642 -0.0360644,-0.0773723 -0.0240332,-0.0214026 -0.0563455,-0.032101 -0.0970956,-0.032101 -0.0392352,0 -0.0721054,0.0112562 -0.0985929,0.0336159 -0.0262938,0.0223597 -0.0445022,0.0565334 -0.0544548,0.102339l-0.141786 -0.0176447c0.00393996,-0.0657169 0.0319366,-0.121505 0.0837608,-0.16734 0.0520063,-0.0458057 0.11999,-0.0687232 0.204496,-0.0687232 0.0886638,0 0.159278,0.0232874 0.211842,0.0696803 0.0524114,0.0463694 0.0786817,0.100266 0.0786817,0.162073 0,0.0339858 -0.00977063,0.0662747 -0.0289067,0.0966963 -0.0193534,0.0304216 -0.0604734,0.0719468 -0.123583,0.124329 -0.0326588,0.0272274 -0.0529399,0.0489999 -0.0608433,0.065529 -0.00787992,0.016529 -0.0114441,0.0460171 -0.0106984,0.0886579zm-0.140271 0.207878l0 -0.154563 0.154533 0 0 0.154563 -0.154533 0z"/>
 </g>
</svg>
