<?xml version="1.0" encoding="UTF-8"?>
<!DOCTYPE svg PUBLIC "-//W3C//DTD SVG 1.1//EN" "http://www.w3.org/Graphics/SVG/1.1/DTD/svg11.dtd">
<!-- Creator: CorelDRAW -->
<svg xmlns="http://www.w3.org/2000/svg" xml:space="preserve" width="300px" height="300px" style="shape-rendering:geometricPrecision; text-rendering:geometricPrecision; image-rendering:optimizeQuality; fill-rule:evenodd; clip-rule:evenodd"
viewBox="0 0 31.3868 31.3868"
 xmlns:xlink="http://www.w3.org/1999/xlink">
 <defs>
  <style type="text/css">
   <![CDATA[
    .str0 {stroke:#003399;stroke-width:0.185206}
    .str1 {stroke:white;stroke-width:0.444432}
    .fil0 {fill:#003399}
    .fil1 {fill:white}
    .fil2 {fill:white;fill-rule:nonzero}
   ]]>
  </style>
 </defs>
 <g id="Vrstva_x0020_1">
  <metadata id="CorelCorpID_0Corel-Layer"/>
  <rect class="fil0 str0" x="0.0926031" y="0.0926031" width="31.2016" height="31.2016"/>
  <polygon class="fil1 str1" points="12.9235,21.0038 12.9235,12.7265 15.7739,12.7265 10.0729,4.44926 4.37209,12.7265 7.22242,12.7265 7.22242,21.0038 "/>
  <path class="fil2" d="M19.3397 27.6456l0 -3.32773c0,-0.659036 0.026878,-1.15124 0.0832588,-1.47483 0.054386,-0.323586 0.168618,-0.61221 0.34301,-0.868286 0.174497,-0.255656 0.404955,-0.4669 0.695784,-0.637513 0.288729,-0.170612 0.614205,-0.255761 0.972963,-0.255761 0.389521,0 0.747965,0.104677 1.07344,0.314032 0.325791,0.211244 0.570003,0.496088 0.732636,0.854532 0.147409,-0.505748 0.39939,-0.897369 0.753949,-1.16856 0.356554,-0.273295 0.775158,-0.408945 1.25592,-0.408945 0.377867,0 0.74597,0.0870386 1.10473,0.263426 0.356554,0.176597 0.643287,0.416714 0.856422,0.720982 0.213239,0.304373 0.345005,0.680455 0.395296,1.12793 0.0291878,0.279069 0.0486114,0.955534 0.0563808,2.02709l0 2.83364 -8.32378 0zm1.38548 -1.6824l1.9244 0 0 -1.10063c0,-0.655152 -0.00955429,-1.062 -0.0287679,-1.22095 -0.0329676,-0.286839 -0.13187,-0.513727 -0.296708,-0.67825 -0.164838,-0.164838 -0.381752,-0.246417 -0.651267,-0.246417 -0.257651,0 -0.4669,0.0698198 -0.627959,0.211559 -0.160638,0.143419 -0.257651,0.354559 -0.290619,0.633628 -0.0192136,0.166518 -0.0290829,0.645282 -0.0290829,1.43608l0 0.964984zm3.3102 0l2.225 0 0 -1.5542c0,-0.606435 -0.0156438,-0.990182 -0.0506063,-1.15313 -0.0444117,-0.249882 -0.156753,-0.453461 -0.331251,-0.610635 -0.176282,-0.156753 -0.412829,-0.236128 -0.707333,-0.236128 -0.250197,0 -0.461441,0.0617354 -0.635833,0.182057 -0.174392,0.122001 -0.302168,0.296393 -0.381857,0.525171 -0.0793741,0.228568 -0.118116,0.726861 -0.118116,1.49047l0 1.35639zm3.62811 -6.7111l-8.32378 0 0 -6.17071 1.40889 0 0 4.49052 1.84503 0 0 -4.17848 1.40112 0 0 4.17848 2.26563 0 0 -4.64958 1.40312 0 0 6.32977zm-3.06031 -11.6282l-1.40312 0 0 -3.62223 3.31607 0c0.34112,0.352669 0.641608,0.862511 0.901148,1.5311 0.257651,0.668591 0.387631,1.34485 0.387631,2.02908 0,0.870176 -0.182162,1.63 -0.54659,2.27718 -0.366213,0.647382 -0.887499,1.13381 -1.56764,1.45939 -0.680455,0.325476 -1.41876,0.488319 -2.21723,0.488319 -0.866396,0 -1.63767,-0.182057 -2.31203,-0.5447 -0.672475,-0.364218 -1.18998,-0.895164 -1.54874,-1.59672 -0.276865,-0.533151 -0.414509,-1.19786 -0.414509,-1.99223 0,-1.03312 0.217019,-1.84125 0.649167,-2.42081 0.434248,-0.581237 1.03302,-0.955429 1.79862,-1.12216l0.312037 1.66875c-0.40905,0.118116 -0.732636,0.33923 -0.969078,0.662816 -0.236548,0.323586 -0.354664,0.726861 -0.354664,1.2114 0,0.734421 0.232348,1.31765 0.697673,1.7519 0.467005,0.434038 1.15701,0.649062 2.0736,0.649062 0.986402,0 1.72891,-0.218909 2.223,-0.658721 0.494198,-0.438133 0.7403,-1.0136 0.7403,-1.72502 0,-0.352669 -0.0697148,-0.705338 -0.20736,-1.06 -0.137645,-0.352669 -0.306262,-0.657041 -0.501863,-0.910808l-1.05643 0 0 1.9244z"/>
 </g>
</svg>
