<?xml version="1.0" encoding="UTF-8"?>
<!DOCTYPE svg PUBLIC "-//W3C//DTD SVG 1.1//EN" "http://www.w3.org/Graphics/SVG/1.1/DTD/svg11.dtd">
<!-- Creator: CorelDRAW -->
<svg xmlns="http://www.w3.org/2000/svg" xml:space="preserve" width="300px" height="300px" style="shape-rendering:geometricPrecision; text-rendering:geometricPrecision; image-rendering:optimizeQuality; fill-rule:evenodd; clip-rule:evenodd"
viewBox="0 0 43.5305 43.5305"
 xmlns:xlink="http://www.w3.org/1999/xlink">
 <defs>
  <style type="text/css">
   <![CDATA[
    .str0 {stroke:#003399;stroke-width:0.256864}
    .str1 {stroke:white;stroke-width:0.616385}
    .fil0 {fill:#003399}
    .fil1 {fill:white}
    .fil2 {fill:white;fill-rule:nonzero}
   ]]>
  </style>
 </defs>
 <g id="Vrstva_x0020_1">
  <metadata id="CorelCorpID_0Corel-Layer"/>
  <rect class="fil0 str0" x="0.128432" y="0.128432" width="43.2736" height="43.2736"/>
  <polygon class="fil1 str1" points="17.9237,6.17069 17.9237,17.6505 21.8769,17.6505 13.9701,29.1303 6.06367,17.6505 10.0168,17.6505 10.0168,6.17069 "/>
  <path class="fil2" d="M38.3763 37.9806l-11.6735 0 0 -8.65415 1.97584 0 0 6.29767 2.58757 0 0 -5.85995 1.96506 0 0 5.85995 3.1773 0 0 -6.52061 1.96769 0 0 8.87708zm0 -10.8992l-11.6735 0 0 -2.29401 7.79502 -4.77789 -7.79502 0 0 -2.19077 11.6735 0 0 2.36711 -7.61286 4.70523 7.61286 0 0 2.19033zm-11.6735 -11.7467l0 -4.308c0,-0.970373 0.073244,-1.70951 0.222644,-2.22033 0.201093,-0.684969 0.560178,-1.27209 1.07638,-1.75858 0.513873,-0.489264 1.14453,-0.861745 1.88905,-1.11715 0.747438,-0.252786 1.66612,-0.380636 2.76128,-0.380636 0.959598,0 1.78873,0.119841 2.48432,0.358648 0.847912,0.290792 1.53565,0.706957 2.0603,1.25039 0.39942,0.407574 0.709141,0.959598 0.932222,1.65534 0.165563,0.518969 0.247253,1.21501 0.247253,2.08723l0 4.43308 -11.6735 0zm1.97584 -2.35633l7.72993 0 0 -1.75858c0,-0.658031 -0.0353843,-1.13332 -0.111395,-1.42687 -0.0950861,-0.380636 -0.255699,-0.698803 -0.483731,-0.951589 -0.228469,-0.252641 -0.606338,-0.456501 -1.12793,-0.616676 -0.522027,-0.157555 -1.23699,-0.239244 -2.13922,-0.239244 -0.902226,0 -1.59287,0.0816896 -2.07631,0.239244 -0.483876,0.160176 -0.861745,0.383257 -1.13113,0.668369 -0.271571,0.288171 -0.453734,0.652497 -0.548966,1.09283 -0.075865,0.328651 -0.111249,0.97314 -0.111249,1.93507l0 1.05745z"/>
 </g>
</svg>
