<?xml version="1.0" encoding="UTF-8"?>
<!DOCTYPE svg PUBLIC "-//W3C//DTD SVG 1.1//EN" "http://www.w3.org/Graphics/SVG/1.1/DTD/svg11.dtd">
<!-- Creator: CorelDRAW -->
<svg xmlns="http://www.w3.org/2000/svg" xml:space="preserve" width="300px" height="300px" style="shape-rendering:geometricPrecision; text-rendering:geometricPrecision; image-rendering:optimizeQuality; fill-rule:evenodd; clip-rule:evenodd"
viewBox="0 0 270.863 270.863"
 xmlns:xlink="http://www.w3.org/1999/xlink">
 <defs>
  <style type="text/css">
   <![CDATA[
    .str0 {stroke:#003399;stroke-width:1.5983}
    .fil0 {fill:#003399}
    .fil1 {fill:white;fill-rule:nonzero}
   ]]>
  </style>
 </defs>
 <g id="Vrstva_x0020_1">
  <metadata id="CorelCorpID_0Corel-Layer"/>
  <rect class="fil0 str0" x="0.799149" y="0.799149" width="269.264" height="269.264"/>
  <path class="fil1" d="M34.7177 194.946l0 -119.03 38.5495 0c14.6076,0 24.1412,0.608876 28.5755,1.79945 6.81542,1.77589 12.5535,5.65657 17.1536,11.6429 4.59919,5.98547 6.9015,13.716 6.9015,23.1672 0,7.31738 -1.33192,13.4687 -3.99122,18.4294 -2.6593,4.98879 -6.01355,8.89756 -10.1144,11.7489 -4.07729,2.82783 -8.23251,4.71335 -12.4439,5.62848 -5.73811,1.1353 -14.0504,1.71699 -24.9422,1.71699l-15.6613 0 0 44.8964 -24.027 0zm24.027 -98.8825l0 33.7564 13.1398 0c9.47744,0 15.8217,-0.6125 19.0111,-1.85743 3.18573,-1.24946 5.68012,-3.18935 7.51037,-5.84865 1.79854,-2.6593 2.71367,-5.73539 2.71367,-9.25455 0,-4.32465 -1.27212,-7.89908 -3.82178,-10.7269 -2.52158,-2.79702 -5.7662,-4.57291 -9.64688,-5.26424 -2.8831,-0.55723 -8.64567,-0.804586 -17.2913,-0.804586l-11.6148 0zm86.8835 98.8825l0 -119.03 88.2417 0 0 20.1473 -64.2147 0 0 26.3837 59.7523 0 0 20.0367 -59.7523 0 0 32.3982 66.4889 0 0 20.0639 -90.5159 0z"/>
 </g>
</svg>
