<?xml version="1.0" encoding="UTF-8"?>
<!DOCTYPE svg PUBLIC "-//W3C//DTD SVG 1.1//EN" "http://www.w3.org/Graphics/SVG/1.1/DTD/svg11.dtd">
<!-- Creator: CorelDRAW -->
<svg xmlns="http://www.w3.org/2000/svg" xml:space="preserve" width="300px" height="300px" style="shape-rendering:geometricPrecision; text-rendering:geometricPrecision; image-rendering:optimizeQuality; fill-rule:evenodd; clip-rule:evenodd"
viewBox="0 0 16.7845 16.7845"
 xmlns:xlink="http://www.w3.org/1999/xlink">
 <defs>
  <style type="text/css">
   <![CDATA[
    .str0 {stroke:#003399;stroke-width:0.0990417}
    .str1 {stroke:white;stroke-width:0.237666}
    .str2 {stroke:white;stroke-width:0.475389}
    .fil2 {fill:none}
    .fil3 {fill:white}
    .fil0 {fill:#003399}
    .fil1 {fill:white}
   ]]>
  </style>
 </defs>
 <g id="Vrstva_x0020_1">
  <metadata id="CorelCorpID_0Corel-Layer"/>
  <rect class="fil0 str0" x="0.0495209" y="0.0495209" width="16.6855" height="16.6855"/>
  <polygon class="fil1 str1" points="6.86173,2.27566 6.86173,6.70205 8.38604,6.70205 5.33731,11.1284 2.28874,6.70205 3.81299,6.70205 3.81299,2.27566 "/>
  <g id="_102165672">
   <path id="_102165840" class="fil2 str2" d="M7.7124 12.7351c2.38307,-2.59923 4.79022,-2.59923 7.22151,0"/>
   <path id="_102165768" class="fil2 str2" d="M7.7124 12.7351c2.38307,2.59928 4.79022,2.59928 7.22151,0"/>
   <path id="_102165696" class="fil3 str2" d="M11.3294 11.7376c0.550793,0 0.997492,0.446698 0.997492,0.997548 0,0.550793 -0.446698,0.997548 -0.997492,0.997548 -0.550849,0 -0.997548,-0.446755 -0.997548,-0.997548 0,-0.550849 0.446698,-0.997548 0.997548,-0.997548z"/>
  </g>
 </g>
</svg>
