<?xml version="1.0" encoding="UTF-8"?>
<!DOCTYPE svg PUBLIC "-//W3C//DTD SVG 1.1//EN" "http://www.w3.org/Graphics/SVG/1.1/DTD/svg11.dtd">
<!-- Creator: CorelDRAW -->
<svg xmlns="http://www.w3.org/2000/svg" xml:space="preserve" width="300px" height="300px" style="shape-rendering:geometricPrecision; text-rendering:geometricPrecision; image-rendering:optimizeQuality; fill-rule:evenodd; clip-rule:evenodd"
viewBox="0 0 71.0012 71.0012"
 xmlns:xlink="http://www.w3.org/1999/xlink">
 <defs>
  <style type="text/css">
   <![CDATA[
    .str0 {stroke:#003399;stroke-width:0.418962}
    .str1 {stroke:white;stroke-width:6.03267}
    .fil1 {fill:none}
    .fil0 {fill:#003399}
    .fil2 {fill:white;fill-rule:nonzero}
   ]]>
  </style>
 </defs>
 <g id="Vrstva_x0020_1">
  <metadata id="CorelCorpID_0Corel-Layer"/>
  <rect class="fil0 str0" x="0.209481" y="0.209481" width="70.5823" height="70.5823"/>
  <g id="_102278024">
   <path id="_102278120" class="fil1 str1" d="M30.8156 29.4803c4.66392,4.66416 12.229,4.66416 16.8929,0 4.66416,-4.66392 4.66416,-12.229 0,-16.8929 -4.66392,-4.66416 -12.229,-4.66416 -16.8929,0 -4.66416,4.66392 -4.66416,12.229 0,16.8929z"/>
   <line id="_102278048" class="fil1 str1" x1="47.7085" y1="29.4803" x2="62.6141" y2= "44.386" />
  </g>
  <path class="fil2" d="M27.6904 63.5825l-4.28462 0 -1.70245 -4.43021 -7.79378 0 -1.60697 4.43021 -4.17608 0 7.59428 -19.4957 4.16254 0 7.80708 19.4957zm-7.24871 -7.71184l-2.68739 -7.23588 -2.63252 7.23588 5.31991 0zm9.34542 -11.7839l7.79426 0c1.54356,0 2.69641,0.0629393 3.4543,0.194993 0.757884,0.127304 1.43407,0.394974 2.03377,0.803485 0.598755,0.408512 1.09372,0.948364 1.4932,1.62953 0.399486,0.676182 0.598992,1.43858 0.598992,2.27888 0,0.912263 -0.245107,1.75185 -0.735558,2.51425 -0.494727,0.763109 -1.16188,1.33503 -2.00147,1.71575 1.18445,0.345572 2.10193,0.935539 2.73703,1.7661 0.640081,0.835074 0.957865,1.8155 0.957865,2.94152 0,0.885188 -0.204018,1.74734 -0.617043,2.58764 -0.413737,0.835074 -0.975915,1.50674 -1.68867,2.00598 -0.712995,0.499239 -1.59367,0.807998 -2.64179,0.925801 -0.653619,0.0681644 -2.23826,0.113766 -4.748,0.131816l-6.63689 0 0 -19.4957zm3.94071 3.24505l0 4.5074 2.5779 0c1.53429,0 2.48717,-0.0225631 2.85958,-0.0674519 0.671669,-0.0771897 1.20321,-0.308996 1.58868,-0.694945 0.385948,-0.385948 0.576904,-0.894213 0.576904,-1.52527 0,-0.603505 -0.163405,-1.09372 -0.495202,-1.47088 -0.335835,-0.376211 -0.830799,-0.603505 -1.48442,-0.680694 -0.389749,-0.0448888 -1.51126,-0.0681644 -3.36333,-0.0681644l-2.26011 0zm0 7.75317l0 5.21114 3.64003 0c1.42053,0 2.31925,-0.036576 2.70093,-0.118278 0.585454,-0.104265 1.06213,-0.367423 1.43003,-0.775935 0.367423,-0.413024 0.553391,-0.96689 0.553391,-1.65661 0,-0.586167 -0.144879,-1.08089 -0.426562,-1.4894 -0.285721,-0.408512 -0.694232,-0.70777 -1.23005,-0.894213 -0.53534,-0.185968 -1.70245,-0.276695 -3.49087,-0.276695l-3.17689 0z"/>
 </g>
</svg>
