<?xml version="1.0" encoding="UTF-8"?>
<!DOCTYPE svg PUBLIC "-//W3C//DTD SVG 1.1//EN" "http://www.w3.org/Graphics/SVG/1.1/DTD/svg11.dtd">
<!-- Creator: CorelDRAW -->
<svg xmlns="http://www.w3.org/2000/svg" xml:space="preserve" width="300px" height="300px" style="shape-rendering:geometricPrecision; text-rendering:geometricPrecision; image-rendering:optimizeQuality; fill-rule:evenodd; clip-rule:evenodd"
viewBox="0 0 43.5305 43.5305"
 xmlns:xlink="http://www.w3.org/1999/xlink">
 <defs>
  <style type="text/css">
   <![CDATA[
    .str0 {stroke:#003399;stroke-width:0.256864}
    .str1 {stroke:white;stroke-width:3.6986}
    .fil1 {fill:none}
    .fil0 {fill:#003399}
    .fil2 {fill:white;fill-rule:nonzero}
   ]]>
  </style>
 </defs>
 <g id="Vrstva_x0020_1">
  <metadata id="CorelCorpID_0Corel-Layer"/>
  <rect class="fil0 str0" x="0.128432" y="0.128432" width="43.2736" height="43.2736"/>
  <g id="_102275624">
   <path id="_102275720" class="fil1 str1" d="M18.8929 18.0742c2.85943,2.85957 7.49753,2.85957 10.357,0 2.85957,-2.85943 2.85957,-7.49753 0,-10.357 -2.85943,-2.85957 -7.49753,-2.85957 -10.357,0 -2.85957,2.85943 -2.85957,7.49753 0,10.357z"/>
   <line id="_102275648" class="fil1 str1" x1="29.2498" y1="18.0742" x2="38.3884" y2= "27.2128" />
  </g>
  <path class="fil2" d="M9.07366 27.0326c1.13346,0 2.01719,0.404808 2.65338,1.21195 0.758213,0.954356 1.13885,2.53893 1.13885,4.75431 0,2.20766 -0.383402,3.79485 -1.14744,4.76275 -0.630655,0.796364 -1.51133,1.19316 -2.64479,1.19316 -1.13346,0 -2.04923,-0.43495 -2.74541,-1.31024 -0.69589,-0.872666 -1.04376,-2.43001 -1.04376,-4.66999 0,-2.19907 0.383402,-3.78102 1.147,-4.74615 0.630655,-0.796364 1.51133,-1.19578 2.64217,-1.19578zm0 1.85658c-0.26895,0 -0.51096,0.0866405 -0.722829,0.258174 -0.212306,0.173718 -0.377869,0.483876 -0.495088,0.929601 -0.152167,0.579108 -0.230799,1.55181 -0.230799,2.9219 0,1.37008 0.0706229,2.3109 0.206627,2.82171 0.138625,0.514018 0.312343,0.853445 0.522027,1.02483 0.211869,0.16833 0.451113,0.255407 0.720062,0.255407 0.272007,0 0.513873,-0.0870773 0.725887,-0.260795 0.21216,-0.171388 0.377869,-0.481255 0.494652,-0.92698 0.152167,-0.57372 0.23109,-1.54409 0.23109,-2.91418 0,-1.37008 -0.0704773,-2.31046 -0.206481,-2.82404 -0.138625,-0.511252 -0.312779,-0.853736 -0.522027,-1.02745 -0.211869,-0.171534 -0.451113,-0.258174 -0.72312,-0.258174zm11.0146 9.86711l-2.23736 0 0 -8.43471c-0.817915,0.766368 -1.78028,1.33193 -2.88942,1.69597l0 -2.03045c0.581729,-0.190318 1.21777,-0.551587 1.90274,-1.08453 0.685115,-0.535424 1.15545,-1.15807 1.40824,-1.86998l1.81581 0 0 11.7237zm7.12709 -11.7237c1.13346,0 2.01734,0.404808 2.65338,1.21195 0.758213,0.954356 1.13885,2.53893 1.13885,4.75431 0,2.20766 -0.383402,3.79485 -1.14729,4.76275 -0.630801,0.796364 -1.51148,1.19316 -2.64494,1.19316 -1.13346,0 -2.04923,-0.43495 -2.74541,-1.31024 -0.69589,-0.872666 -1.04376,-2.43001 -1.04376,-4.66999 0,-2.19907 0.383402,-3.78102 1.147,-4.74615 0.630655,-0.796364 1.51133,-1.19578 2.64217,-1.19578zm0 1.85658c-0.26895,0 -0.510815,0.0866405 -0.722829,0.258174 -0.21216,0.173718 -0.377869,0.483876 -0.494943,0.929601 -0.152312,0.579108 -0.230799,1.55181 -0.230799,2.9219 0,1.37008 0.0704773,2.3109 0.206481,2.82171 0.138625,0.514018 0.312488,0.853445 0.522027,1.02483 0.211869,0.16833 0.451113,0.255407 0.720062,0.255407 0.272007,0 0.514018,-0.0870773 0.725887,-0.260795 0.212306,-0.171388 0.377869,-0.481255 0.494652,-0.92698 0.152167,-0.57372 0.231235,-1.54409 0.231235,-2.91418 0,-1.37008 -0.0706229,-2.31046 -0.206627,-2.82404 -0.138625,-0.511252 -0.312779,-0.853736 -0.522027,-1.02745 -0.211869,-0.171534 -0.451113,-0.258174 -0.72312,-0.258174z"/>
 </g>
</svg>
