<?xml version="1.0" encoding="UTF-8"?>
<!DOCTYPE svg PUBLIC "-//W3C//DTD SVG 1.1//EN" "http://www.w3.org/Graphics/SVG/1.1/DTD/svg11.dtd">
<!-- Creator: CorelDRAW -->
<svg xmlns="http://www.w3.org/2000/svg" xml:space="preserve" width="300px" height="300px" style="shape-rendering:geometricPrecision; text-rendering:geometricPrecision; image-rendering:optimizeQuality; fill-rule:evenodd; clip-rule:evenodd"
viewBox="0 0 19.9505 19.9505"
 xmlns:xlink="http://www.w3.org/1999/xlink">
 <defs>
  <style type="text/css">
   <![CDATA[
    .str0 {stroke:#4299FF;stroke-width:0.117723}
    .fil0 {fill:#4299FF}
    .fil1 {fill:black;fill-rule:nonzero}
   ]]>
  </style>
 </defs>
 <g id="Vrstva_x0020_1">
  <metadata id="CorelCorpID_0Corel-Layer"/>
  <rect class="fil0 str0" x="0.0588616" y="0.0588616" width="19.8327" height="19.8327"/>
  <path class="fil1" d="M2.02912 11.3762l1.60194 -0.157365c0.094966,0.539097 0.290304,0.93371 0.58648,1.18631 0.294308,0.250462 0.690789,0.377729 1.19198,0.377729 0.529421,0 0.929973,-0.112184 1.19765,-0.337887 0.269549,-0.224101 0.404356,-0.485842 0.404356,-0.785755 0,-0.193736 -0.0570597,-0.35704 -0.170845,-0.491781 -0.112184,-0.136676 -0.30939,-0.254199 -0.592353,-0.352969 -0.191534,-0.0683382 -0.631928,-0.185861 -1.31711,-0.356707 -0.882657,-0.218429 -1.50137,-0.487977 -1.85621,-0.806777 -0.501191,-0.447869 -0.751653,-0.994507 -0.751653,-1.63992 0,-0.415568 0.11759,-0.802706 0.352969,-1.16535 0.23538,-0.360711 0.575135,-0.635932 1.0174,-0.825597 0.444131,-0.188063 0.977356,-0.282696 1.60388,-0.282696 1.02494,0 1.79354,0.223767 2.31162,0.671703 0.516273,0.449804 0.787691,1.04783 0.814319,1.79755l-1.64552 0.0720754c-0.0702068,-0.419372 -0.222233,-0.721221 -0.453608,-0.903612 -0.231576,-0.183992 -0.578872,-0.275221 -1.04216,-0.275221 -0.4783,0 -0.854094,0.0969014 -1.12364,0.294308 -0.174583,0.125398 -0.261741,0.294308 -0.261741,0.504995 0,0.193402 0.0814853,0.358575 0.244789,0.495251 0.206883,0.174583 0.711811,0.356973 1.51265,0.544703 0.800838,0.189932 1.39326,0.38527 1.77659,0.58648 0.383334,0.203079 0.683315,0.4783 0.901476,0.829601 0.21656,0.351101 0.324673,0.783954 0.324673,1.29829 0,0.466755 -0.129135,0.905214 -0.389274,1.31144 -0.259872,0.408094 -0.626255,0.711811 -1.10082,0.909285 -0.474496,0.199075 -1.06658,0.297778 -1.77466,0.297778 -1.03061,0 -1.82204,-0.237248 -2.37435,-0.71368 -0.552244,-0.476432 -0.88259,-1.17103 -0.988835,-2.08218zm14.5749 1.61729c0.402421,0.288368 0.842815,0.520011 1.31731,0.688988l-0.6055 1.16348c-0.248593,-0.0740108 -0.491514,-0.176518 -0.728762,-0.305653 -0.0532557,-0.0266279 -0.41777,-0.267613 -1.09515,-0.72309 -0.53536,0.233511 -1.12558,0.349165 -1.77472,0.349165 -1.25278,0 -2.23414,-0.368252 -2.94381,-1.10642 -0.709943,-0.736571 -1.06505,-1.77279 -1.06505,-3.10712 0,-1.33239 0.355105,-2.36681 1.06692,-3.10712 0.711544,-0.738439 1.67782,-1.10829 2.8981,-1.10829 1.20733,0 2.16587,0.369854 2.87361,1.10829 0.708074,0.740308 1.06318,1.77472 1.06318,3.10712 0,0.704003 -0.09877,1.32298 -0.294308,1.85621 -0.14989,0.408094 -0.387138,0.802973 -0.711811,1.18444zm-1.32492 -0.928104c0.212823,-0.248794 0.370187,-0.548507 0.476432,-0.901743 0.104376,-0.351034 0.157632,-0.75539 0.157632,-1.2108 0,-0.943454 -0.206883,-1.64552 -0.622518,-2.11067 -0.415568,-0.464886 -0.958469,-0.698331 -1.62857,-0.698331 -0.672036,0 -1.2146,0.233444 -1.63237,0.700199 -0.417503,0.467022 -0.626255,1.16916 -0.626255,2.10881 0,0.950995 0.208752,1.66467 0.626255,2.13704 0.41777,0.472695 0.943387,0.709943 1.58125,0.709943 0.237248,0 0.462951,-0.0398417 0.673571,-0.11759 -0.333816,-0.218429 -0.673571,-0.389207 -1.01713,-0.512469l0.461082 -0.93965c0.541033,0.186195 1.05911,0.463218 1.55062,0.835274z"/>
 </g>
</svg>
