<?xml version="1.0" encoding="UTF-8"?>
<!DOCTYPE svg PUBLIC "-//W3C//DTD SVG 1.1//EN" "http://www.w3.org/Graphics/SVG/1.1/DTD/svg11.dtd">
<!-- Creator: CorelDRAW -->
<svg xmlns="http://www.w3.org/2000/svg" xml:space="preserve" width="40px" height="40px" style="shape-rendering:geometricPrecision; text-rendering:geometricPrecision; image-rendering:optimizeQuality; fill-rule:evenodd; clip-rule:evenodd"
viewBox="0 0 1.61308 1.61308"
 xmlns:xlink="http://www.w3.org/1999/xlink">
 <defs>
  <style type="text/css">
   <![CDATA[
    .str0 {stroke:#4299FF;stroke-width:0.0447181}
    .fil0 {fill:#6099FF}
    .fil1 {fill:black;fill-rule:nonzero}
   ]]>
  </style>
 </defs>
 <g id="Vrstva_x0020_1">
  <metadata id="CorelCorpID_0Corel-Layer"/>
  <path class="fil0 str0" d="M0.21841 0.0223617l1.17627 0c0.107826,0 0.196048,0.0882215 0.196048,0.196048l0 1.17627c0,0.107826 -0.0882215,0.196048 -0.196048,0.196048l-1.17627 0c-0.107826,0 -0.196048,-0.0882215 -0.196048,-0.196048l0 -1.17627c0,-0.107826 0.0882215,-0.196048 0.196048,-0.196048z"/>
  <path class="fil1" d="M0.177695 0.917416l0.126776 -0.0124537c0.00751552,0.0426636 0.0229744,0.0738929 0.0464135,0.0938832 0.0232912,0.0198213 0.0546684,0.0298931 0.0943322,0.0298931 0.0418978,0 0.0735972,-0.00887814 0.0947811,-0.02674 0.0213318,-0.0177351 0.0320004,-0.038449 0.0320004,-0.0621839 0,-0.0153321 -0.00451565,-0.0282558 -0.0135205,-0.0389191 -0.00887814,-0.0108164 -0.0244849,-0.0201171 -0.0468782,-0.0279336 -0.0151578,-0.00540822 -0.0500102,-0.0147089 -0.104235,-0.0282294 -0.0698526,-0.0172862 -0.118817,-0.038618 -0.146899,-0.0638476 -0.0396638,-0.0354439 -0.0594851,-0.0787043 -0.0594851,-0.129781 0,-0.0328877 0.00930593,-0.0635254 0.0279336,-0.0922249 0.0186277,-0.0285463 0.0455156,-0.050327 0.0805159,-0.065337 0.0351481,-0.0148832 0.077347,-0.0223723 0.126929,-0.0223723 0.0811127,0 0.141939,0.0177087 0.182939,0.0531579 0.0408574,0.035597 0.0623371,0.0829242 0.0644444,0.142256l-0.130225 0.00570398c-0.0055561,-0.0331887 -0.0175873,-0.0570767 -0.0358981,-0.071511 -0.0183267,-0.014561 -0.0458114,-0.0217807 -0.0824753,-0.0217807 -0.0378522,0 -0.0675921,0.00766868 -0.088924,0.0232912 -0.0138163,0.00992387 -0.0207139,0.0232912 -0.0207139,0.0399648 0,0.0153057 0.00644866,0.0283773 0.0193724,0.0391937 0.0163725,0.0138163 0.0563321,0.0282505 0.11971,0.0431073 0.0633775,0.015031 0.110261,0.0304899 0.140598,0.0464135 0.0303367,0.0160715 0.0540769,0.0378522 0.071342,0.0656538 0.0171383,0.0277858 0.0256943,0.0620413 0.0256943,0.102746 0,0.0369385 -0.0102196,0.0716377 -0.0308068,0.103786 -0.020566,0.0322961 -0.0495612,0.0563321 -0.0871177,0.0719599 -0.0375512,0.0157546 -0.0844083,0.0235659 -0.140445,0.0235659 -0.0815616,0 -0.144194,-0.0187756 -0.187904,-0.0564799 -0.0437041,-0.0377043 -0.0698473,-0.0926738 -0.0782554,-0.164782zm1.15344 0.127991c0.0318472,0.0228212 0.0666996,0.0411531 0.104251,0.0545258l-0.0479187 0.092077c-0.0196734,-0.00585714 -0.038898,-0.0139695 -0.0576736,-0.0241891 -0.00421461,-0.0021073 -0.0330619,-0.0211787 -0.0866688,-0.0572246 -0.0423679,0.0184798 -0.0890771,0.0276326 -0.14045,0.0276326 -0.0991436,0 -0.176807,-0.0291431 -0.232971,-0.0875613 -0.0561842,-0.0582915 -0.0842868,-0.140297 -0.0842868,-0.245894 0,-0.105444 0.0281027,-0.187307 0.0844347,-0.245894 0.0563109,-0.0584394 0.132781,-0.0877092 0.229353,-0.0877092 0.0955469,0 0.171405,0.0292699 0.227414,0.0877092 0.0560363,0.0585872 0.084139,0.14045 0.084139,0.245894 0,0.0557141 -0.00781656,0.1047 -0.0232912,0.146899 -0.0118622,0.0322961 -0.0306378,0.0635465 -0.0563321,0.0937354zm-0.104853 -0.0734493c0.0168426,-0.0196893 0.0292963,-0.0434083 0.0377043,-0.0713631 0.0082602,-0.0277805 0.0124748,-0.0597809 0.0124748,-0.0958215 0,-0.074664 -0.0163725,-0.130225 -0.0492655,-0.167037 -0.0328877,-0.0367907 -0.0758523,-0.0552652 -0.128883,-0.0552652 -0.0531843,0 -0.0961226,0.0184746 -0.129185,0.0554131 -0.0330408,0.0369597 -0.0495612,0.0925259 -0.0495612,0.166889 0,0.0752608 0.0165204,0.131741 0.0495612,0.169123 0.0330619,0.0374086 0.0746587,0.0561842 0.125139,0.0561842 0.0187756,0 0.0366375,-0.00315303 0.0533058,-0.00930593 -0.0264179,-0.0172862 -0.0533058,-0.0308015 -0.0804947,-0.0405563l0.0364896 -0.074363c0.0428168,0.0147353 0.0838168,0.0366586 0.122715,0.0661028z"/>
 </g>
</svg>
