<?xml version="1.0" encoding="UTF-8"?>
<!DOCTYPE svg PUBLIC "-//W3C//DTD SVG 1.1//EN" "http://www.w3.org/Graphics/SVG/1.1/DTD/svg11.dtd">
<!-- Creator: CorelDRAW -->
<svg xmlns="http://www.w3.org/2000/svg" xml:space="preserve" width="40px" height="40px" style="shape-rendering:geometricPrecision; text-rendering:geometricPrecision; image-rendering:optimizeQuality; fill-rule:evenodd; clip-rule:evenodd"
viewBox="0 0 1.45524 1.45524"
 xmlns:xlink="http://www.w3.org/1999/xlink">
 <defs>
  <style type="text/css">
   <![CDATA[
    .str0 {stroke:#FFFF33;stroke-width:0.0403422}
    .fil0 {fill:#FFFF33}
    .fil1 {fill:black;fill-rule:nonzero}
   ]]>
  </style>
 </defs>
 <g id="Vrstva_x0020_1">
  <metadata id="CorelCorpID_0Corel-Layer"/>
  <path class="fil0 str0" d="M0.197037 0.0201735l1.06116 0c0.097275,0 0.176864,0.0795886 0.176864,0.176864l0 1.06116c0,0.097275 -0.0795886,0.176864 -0.176864,0.176864l-1.06116 0c-0.097275,0 -0.176864,-0.0795886 -0.176864,-0.176864l0 -1.06116c0,-0.097275 0.0795886,-0.176864 0.176864,-0.176864z"/>
  <path class="fil1" d="M0.178398 0.829105l0.114371 -0.011235c0.00678009,0.0384888 0.0207262,0.0666621 0.0418717,0.0846963 0.0210121,0.0178817 0.0493188,0.0269679 0.0851013,0.0269679 0.0377979,0 0.0663953,-0.00800937 0.0855063,-0.0241234 0.0192444,-0.0159997 0.028869,-0.0346866 0.028869,-0.0561037 0,-0.013827 -0.00407377,-0.0254861 -0.0121975,-0.0351059 -0.00800937,-0.00975799 -0.0220889,-0.0181533 -0.042291,-0.0252002 -0.0136745,-0.004879 -0.0451164,-0.0132695 -0.094035,-0.025467 -0.0630172,-0.0155947 -0.10719,-0.0348391 -0.132524,-0.0575998 -0.0357825,-0.0319803 -0.0536642,-0.0710075 -0.0536642,-0.117082 0,-0.0296742 0.0083953,-0.0573091 0.0252002,-0.0832002 0.0168049,-0.0257577 0.0410617,-0.0454071 0.072637,-0.0589434 0.0317135,-0.0134268 0.0697782,-0.0201878 0.114509,-0.0201878 0.0731754,0 0.12805,0.0159806 0.165043,0.0479561 0.0368545,0.0321137 0.0562323,0.0748097 0.0581334,0.12834l-0.117482 0.00514582c-0.00501241,-0.029941 -0.0158663,-0.0514915 -0.0323853,-0.0645133 -0.0165333,-0.0131361 -0.0413285,-0.0196494 -0.0744047,-0.0196494 -0.0341482,0 -0.0609779,0.0069135 -0.0802223,0.0210121 -0.0124643,0.008948 -0.0186869,0.0210121 -0.0186869,0.0360493 0,0.0138079 0.00581763,0.0256004 0.0174767,0.0353584 0.0147704,0.0124643 0.0508197,0.0254861 0.107995,0.0388938 0.0571805,0.0135602 0.0994715,0.0275015 0.12684,0.0418717 0.0273681,0.0144988 0.0487852,0.0341482 0.0643608,0.0592293 0.0154613,0.0250668 0.02318,0.0559655 0.02318,0.0926914 0,0.0333239 -0.00921959,0.0646276 -0.0277922,0.09363 -0.0185535,0.0291358 -0.0447114,0.0508197 -0.078588,0.0649183 -0.0338814,0.0142129 -0.0761533,0.0212598 -0.126706,0.0212598 -0.0735804,0 -0.130084,-0.0169383 -0.169517,-0.0509531 -0.0394274,-0.0340148 -0.0630124,-0.0836052 -0.0705977,-0.148657zm0.573611 0.189314l0 -0.582006 0.117487 0 0 0.258401 0.237408 -0.258401 0.15801 0 -0.219121 0.226692 0.231047 0.355314 -0.152035 0 -0.159911 -0.27319 -0.0953977 0.0972988 0 0.175892 -0.117487 0z"/>
 </g>
</svg>
