<?xml version="1.0" encoding="UTF-8"?>
<!DOCTYPE svg PUBLIC "-//W3C//DTD SVG 1.1//EN" "http://www.w3.org/Graphics/SVG/1.1/DTD/svg11.dtd">
<!-- Creator: CorelDRAW -->
<svg xmlns="http://www.w3.org/2000/svg" xml:space="preserve" width="300px" height="300px" style="shape-rendering:geometricPrecision; text-rendering:geometricPrecision; image-rendering:optimizeQuality; fill-rule:evenodd; clip-rule:evenodd"
viewBox="0 0 16.7838 16.7838"
 xmlns:xlink="http://www.w3.org/1999/xlink">
 <defs>
  <style type="text/css">
   <![CDATA[
    .str0 {stroke:#FFFF33;stroke-width:0.0990376}
    .fil0 {fill:#FFFF33}
    .fil1 {fill:black;fill-rule:nonzero}
   ]]>
  </style>
 </defs>
 <g id="Vrstva_x0020_1">
  <metadata id="CorelCorpID_0Corel-Layer"/>
  <rect class="fil0 str0" x="0.0495188" y="0.0495188" width="16.6848" height="16.6848"/>
  <path class="fil1" d="M1.92023 9.58778l1.34767 -0.132387c0.0798926,0.453529 0.244225,0.785507 0.493391,0.998011 0.247594,0.210708 0.581144,0.317774 1.00278,0.317774 0.445388,0 0.782363,-0.0943777 1.00756,-0.284256 0.226765,-0.188531 0.340175,-0.408727 0.340175,-0.661093 0,-0.162929 -0.0480029,-0.300313 -0.143728,-0.413667 -0.0943777,-0.114982 -0.260282,-0.213908 -0.498332,-0.296944 -0.161133,-0.0574912 -0.531625,-0.15636 -1.10805,-0.300088 -0.742557,-0.183759 -1.26307,-0.410523 -1.56158,-0.678722 -0.42164,-0.376837 -0.632347,-0.83671 -0.632347,-1.37962 0,-0.349663 0.0989253,-0.675297 0.296944,-0.980382 0.198019,-0.303513 0.483847,-0.53505 0.855912,-0.694554 0.373693,-0.158213 0.822225,-0.237881 1.3493,-0.237881 0.862256,0 1.50886,0.188306 1.94476,0.565087 0.434272,0.378409 0.662609,0.881513 0.68501,1.51229l-1.38434 0.0606353c-0.0590632,-0.352807 -0.186959,-0.606746 -0.381609,-0.760186 -0.194819,-0.154788 -0.486991,-0.231537 -0.876741,-0.231537 -0.402382,0 -0.718528,0.0814646 -0.945292,0.247594 -0.146872,0.105438 -0.220196,0.247594 -0.220196,0.424784 0,0.162705 0.0685515,0.30166 0.205935,0.416643 0.174046,0.146872 0.598829,0.300313 1.27255,0.458301 0.673781,0.159785 1.17211,0.324062 1.4946,0.493391 0.32249,0.170845 0.574856,0.402382 0.75839,0.697923 0.182186,0.295372 0.273139,0.659465 0.273139,1.09222 0,0.392669 -0.108638,0.761534 -0.327487,1.10328 -0.218624,0.343319 -0.526853,0.598829 -0.926035,0.764959 -0.399238,0.167477 -0.897346,0.250513 -1.49303,0.250513 -0.867028,0 -1.53284,-0.199591 -1.99748,-0.600401 -0.46459,-0.40081 -0.742501,-0.985154 -0.831882,-1.75169zm6.75909 2.23076l0 -6.85802 1.38439 0 0 3.04484 2.79747 -3.04484 1.8619 0 -2.582 2.67121 2.72252 4.18681 -1.79149 0 -1.8843 -3.21911 -1.12411 1.14651 0 2.0726 -1.38439 0z"/>
 </g>
</svg>
