<?xml version="1.0" encoding="UTF-8"?>
<!DOCTYPE svg PUBLIC "-//W3C//DTD SVG 1.1//EN" "http://www.w3.org/Graphics/SVG/1.1/DTD/svg11.dtd">
<!-- Creator: CorelDRAW -->
<svg xmlns="http://www.w3.org/2000/svg" xml:space="preserve" width="300px" height="300px" style="shape-rendering:geometricPrecision; text-rendering:geometricPrecision; image-rendering:optimizeQuality; fill-rule:evenodd; clip-rule:evenodd"
viewBox="0 0 19.9495 19.9495"
 xmlns:xlink="http://www.w3.org/1999/xlink">
 <defs>
  <style type="text/css">
   <![CDATA[
    .str0 {stroke:#003399;stroke-width:0.117717}
    .str1 {stroke:white;stroke-width:1.12999}
    .fil1 {fill:none}
    .fil0 {fill:#003399}
    .fil2 {fill:white;fill-rule:nonzero}
   ]]>
  </style>
 </defs>
 <g id="Vrstva_x0020_1">
  <metadata id="CorelCorpID_0Corel-Layer"/>
  <rect class="fil0 str0" x="0.0588586" y="0.0588586" width="19.8318" height="19.8318"/>
  <polygon class="fil1 str1" points="11.07,9.42206 18.0272,9.42206 18.0272,16.4702 11.07,16.4702 "/>
  <line class="fil1 str1" x1="12.6524" y1="11.4497" x2="16.615" y2= "11.4497" />
  <line class="fil1 str1" x1="12.6524" y1="14.5645" x2="16.615" y2= "14.5645" />
  <path class="fil2" d="M6.37215 9.45742l-1.70396 0c-0.00453786,-0.228227 -0.00707372,-0.365698 -0.00707372,-0.416281 0,-0.51151 0.0914912,-0.931995 0.273873,-1.26172 0.182649,-0.33153 0.549948,-0.701366 1.09736,-1.11558 0.547412,-0.412077 0.875873,-0.68248 0.980977,-0.811275 0.166499,-0.200667 0.248648,-0.424623 0.248648,-0.667799 0,-0.338137 -0.146146,-0.627425 -0.438103,-0.870601 -0.291958,-0.240773 -0.684482,-0.36116 -1.17951,-0.36116 -0.476608,0 -0.875939,0.12666 -1.19766,0.378244 -0.319452,0.251517 -0.540605,0.636101 -0.661526,1.15148l-1.72238 -0.198531c0.0478477,-0.73947 0.387987,-1.36716 1.01755,-1.88288 0.631763,-0.51538 1.45759,-0.773237 2.48414,-0.773237 1.07701,0 1.93479,0.262061 2.57343,0.784048 0.636634,0.521653 0.955752,1.12812 0.955752,1.82348 0,0.382448 -0.118652,0.745743 -0.35115,1.08802 -0.235034,0.342341 -0.734599,0.80954 -1.50123,1.39886 -0.396729,0.306372 -0.643107,0.551349 -0.739137,0.737335 -0.0956954,0.185985 -0.139005,0.517783 -0.129996,0.997594zm-1.70396 2.33893l0 -1.73907 1.87727 0 0 1.73907 -1.87727 0z"/>
 </g>
</svg>
